# xmcd CD database file
#
# Track frame offsets:
#	150
#	18448
#	31518
#	44338
#	58755
#	73029
#	84628
#	98404
#	114197
#	123267
#	135181
#	149705
#	168668
#	188262
#	202416
#	214619
#
# Disc length: 3068 seconds
#
# Revision: 1
# Processed by: cddbd v1.5.2PL0 Copyright (c) Steve Scherf et al.
# Submitted via: CDex 1.70beta2
#
DISCID=d80bfa10
DTITLE=Black Hills Country Band - Anything Or Anytime
DYEAR=1998
DGENRE=Country
TTITLE0=For Reasons I've Forgotten
TTITLE1=Hey Karen
TTITLE2=On Top Of The Black Hills
TTITLE3=I Won't Get Up Before The Sun Goes Down
TTITLE4=Anything Or Anytime
TTITLE5=Sugar's Sweet
TTITLE6=Wrong
TTITLE7=Send A Message To My Heart
TTITLE8=Don't Be Cruel
TTITLE9=Hopelessly Yours
TTITLE10=Hurricane
TTITLE11=One Way Track
TTITLE12=Ticket To Heaven
TTITLE13=Pick A Bale Of Cotton
TTITLE14=Ghost Riders In The Sky
TTITLE15=Kampvuur
EXTD=YEAR: 1998
EXTT0=
EXTT1=
EXTT2=
EXTT3=
EXTT4=
EXTT5=
EXTT6=
EXTT7=
EXTT8=
EXTT9=
EXTT10=
EXTT11=
EXTT12=
EXTT13=
EXTT14=
EXTT15=
PLAYORDER=
